<?xml version="1.0" encoding="UTF-8"?>
<!DOCTYPE svg PUBLIC "-//W3C//DTD SVG 1.1//EN" "http://www.w3.org/Graphics/SVG/1.1/DTD/svg11.dtd">
<!-- Creator: CorelDRAW 2019 (64-Bit) -->
<svg xmlns="http://www.w3.org/2000/svg" xml:space="preserve" width="477px" height="449px" version="1.1" style="shape-rendering:geometricPrecision; text-rendering:geometricPrecision; image-rendering:optimizeQuality; fill-rule:evenodd; clip-rule:evenodd"
viewBox="0 0 477 448.8"
 xmlns:xlink="http://www.w3.org/1999/xlink"
 xmlns:xodm="http://www.corel.com/coreldraw/odm/2003">
 <defs>
  <style type="text/css">
   <![CDATA[
    .fil0 {fill:#62C536}
   ]]>
  </style>
 </defs>
 <g id="Capa_x0020_1">
  <metadata id="CorelCorpID_0Corel-Layer"/>
  <g id="_2115789973824">
   <path class="fil0" d="M21.87 191.12c-0.88,-77.99 33.35,-74.82 93.44,-109.52 150.72,-87.03 107.71,-76.46 256.87,5.83 76.02,41.94 86.8,39.28 83.05,104.32 -43.72,-11.86 -183.22,-112.29 -214.73,-113.54 -33.08,-1.32 -168.42,98.35 -218.63,112.91zm-0.22 26.03c32.56,-14.04 196.99,-119.01 218.34,-117.96 14.04,0.69 191.71,104.84 216.05,120.5 0.08,32.58 4.11,147.43 -2.08,171 -19.03,72.52 -225.13,45.95 -186.36,-90.72 19.12,-67.43 83.82,-51.53 91.04,-81.18 -44.86,-28.3 -155.34,67.49 -100.06,169.68 39.55,73.1 195.58,84.2 214.51,8.76 6.85,-27.3 2.62,-125.61 2.63,-160.31 0.01,-56.44 9.13,-102.32 -27.37,-128.96 -26.73,-19.51 -179,-107.36 -207.87,-107.96 -34.11,-0.7 -192.42,94.28 -211.75,109.78 -37.99,30.46 -27.24,76.24 -27.2,133.18 0.11,156.05 -24.35,209.21 118.45,202.49 133.98,-6.31 148.31,-171.2 52.55,-219.58 -61.54,-31.09 -53.06,-2.1 -53.59,-1.04 19.47,25.12 81.1,8.95 93.34,84.7 22.32,138.24 -175.33,148.11 -189.06,78.05 -6.44,-32.85 -1.58,-130.87 -1.57,-170.43z"/>
   <path class="fil0" d="M289.03 227.04c32.27,-15.08 33.41,-48.39 23.14,-79.6 -14.44,6.08 -23.19,13.32 -29.61,29.03 -11.35,27.79 -0.23,41.3 6.47,50.57z"/>
   <path class="fil0" d="M279.67 325.58c12.43,24.51 40,44.86 77.78,26.18 -9.19,-30.25 -44.97,-43.8 -77.78,-26.18z"/>
   <path class="fil0" d="M167.2 151.42c-9.6,15.04 -10.81,27.66 -4.18,47.56 6.54,19.63 14.14,22.61 31.37,28.7 5.55,-31.59 0.97,-81.3 -27.19,-76.26z"/>
   <path class="fil0" d="M232.66 256.77c37.8,-17.97 27.22,-62.35 6.16,-83.52 -25.62,31.27 -20.75,47.8 -6.16,83.52z"/>
   <path class="fil0" d="M84.57 308.85c40.76,-0.38 56.47,-22.36 61.85,-61.71 -39.05,7.33 -55.5,23.58 -61.85,61.71z"/>
   <path class="fil0" d="M331.26 247.96c7.5,37.4 21.18,58.9 61.98,61.67 -6.22,-38.66 -21.83,-57.85 -61.98,-61.67z"/>
   <path class="fil0" d="M121.01 355.71c45.49,6.43 56.09,-2.31 75.33,-28.12 -25.87,-21.06 -72.86,-4.59 -75.33,28.12z"/>
  </g>
 </g>
</svg>
