<?xml version="1.0" encoding="UTF-8"?>
<!DOCTYPE svg PUBLIC "-//W3C//DTD SVG 1.1//EN" "http://www.w3.org/Graphics/SVG/1.1/DTD/svg11.dtd">
<!-- Creator: CorelDRAW 2019 (64-Bit) -->
<svg xmlns="http://www.w3.org/2000/svg" xml:space="preserve" width="500px" height="500px" version="1.1" style="shape-rendering:geometricPrecision; text-rendering:geometricPrecision; image-rendering:optimizeQuality; fill-rule:evenodd; clip-rule:evenodd"
viewBox="0 0 500 500"
 xmlns:xlink="http://www.w3.org/1999/xlink"
 xmlns:xodm="http://www.corel.com/coreldraw/odm/2003"
 data-name="Layer 1">
 <defs>
  <style type="text/css">
   <![CDATA[
    .fil0 {fill:black}
    .fil1 {fill:#095406}
   ]]>
  </style>
 </defs>
 <g id="Capa_x0020_1">
  <metadata id="CorelCorpID_0Corel-Layer"/>
  <g id="_2622403275952">
   <path class="fil0" d="M36.24 361.86l29.54 0.17 0.16 -68.48c3.75,5.19 22.1,43.02 26.27,51.52 1.45,2.95 2.74,5.59 4.27,8.73 5.63,11.54 0.94,8.24 42.46,8.24 5.8,-10.07 11.58,-22.93 16.94,-34.02 1.87,-3.87 14.4,-30.72 17.43,-34.03l0.17 67.8 29.44 0.27 0.24 -120.8c-46.12,-1.43 -36.57,-3.5 -54.13,31.9l-28.7 58.32c-0.21,-0.18 -0.49,-0.76 -0.57,-0.59l-43.34 -86.08c-4.34,-5.67 -30.63,-4.21 -40.11,-3.44l-0.07 120.49z"/>
   <path class="fil0" d="M65.55 424.47c2.06,1.6 30.03,58.51 32.12,63.99l36.24 -0.19 32.42 -63.81 0 63.95 27.91 0.09 0.01 -113.46c-9.4,-0.26 -33.13,-2.48 -37.58,3.76 -6.03,8.47 -34.35,71.75 -40.59,80.49l-27.26 -53.8c-17.26,-35.14 -8.12,-30.86 -51.25,-30.51l-0.01 113.49 27.93 0.02 0.06 -64.02z"/>
   <path class="fil1" d="M16.34 72.08l-0.06 49.8c6.16,-1.61 105.23,-58.39 110.6,-59.9 3.74,-1.05 23.77,10.67 28.31,13.06l70.4 36.63c4.62,2.32 10.06,5.78 14.68,7.35l-0.07 -50.18c-14.32,-5.98 -108.03,-57.99 -112.91,-57.33 -0.12,0.01 -106.26,57.07 -110.95,60.57z"/>
   <path class="fil0" d="M85.32 233.9l28.22 0.17 1.43 -79 54.12 61.09c16.28,18.08 21.3,18.97 52.99,17.9l0.01 -113.53 -27.59 -0.02 -0.41 76.52c-7.19,-5.79 -11.2,-11.75 -16.43,-17.47l-28.54 -30.45c-20.24,-19.29 -20.41,-31.84 -63.52,-28.44l-0.28 113.23z"/>
   <path class="fil0" d="M210.75 362.03l33.31 0.01 44.77 -90.15c3.44,3.3 22.83,43.57 23.6,47.18l-42.06 0.04 6.19 19.63c1.11,3.59 0.63,4.15 3.56,5.94l45.46 0.01 8.7 17.39 33.48 -0.15c-0.71,-3.92 -47.71,-97.08 -53.75,-109.64 -7.5,-15.57 -17.68,-10.7 -44.12,-11.17 -5.68,13.23 -57.63,114.27 -59.14,120.91z"/>
   <path class="fil0" d="M341.42 488.45l-0.05 -24.21c-22.13,0.11 -44.2,0.02 -66.25,0.02 -38.06,0 -34.25,5.74 -34.35,-32.02 -0.1,-38.03 -4.43,-33.17 33.35,-33.17 22.36,0 44.75,-0.13 67.1,0.03l0.18 -24.1c-30.65,-0.46 -61.61,-0.05 -92.29,-0.05 -17.56,0 -28.24,-1.51 -34.46,11.84 -3.1,6.66 -2.7,83.6 -0.38,89.29 5.42,13.26 17.72,12.38 33.84,12.38 31.1,0 62.22,-0.12 93.31,-0.01z"/>
   <path class="fil0" d="M373.1 403.27c8.03,9.64 16.57,18.64 24.75,28.1 -3.18,5.39 -41.81,46.61 -49.53,57.04l35.9 -0.04 31.94 -35.89 31.57 36.02 35.99 -0.61 -43.27 -48.95c-2.14,-2.68 -4.15,-4.26 -6.23,-6.54 1.58,-4.04 31.26,-36.12 37.02,-43.13 2.9,-3.54 10.39,-10.44 12.22,-14.26 -8.77,-0.12 -17.54,0 -26.3,-0.07 -13.92,-0.12 -10.34,2.69 -16.98,9.33l-18.45 20.51c-2.1,2.47 -3.21,4.33 -5.42,6.3l-31.98 -36.14 -35.83 0.49 24.6 27.84z"/>
   <polygon class="fil0" points="334.96,266.87 480.02,266.88 480.49,241.17 335.02,241.17 "/>
   <polygon class="fil0" points="38.04,234.12 65.94,234.11 65.96,120.63 38.42,120.48 "/>
   <path class="fil0" d="M392.99 362.03l29.44 0.02 0.16 -80.86c-2.78,-3.21 -24.15,-8.24 -29.67,-9.48l0.07 90.32z"/>
   <path class="fil0" d="M320.92 419.62l-75.7 0.12 7.52 23.97 76.06 0.03c-1.01,-5.93 -5.59,-19.29 -7.88,-24.12z"/>
  </g>
 </g>
</svg>
