<?xml version="1.0" encoding="UTF-8"?>
<!DOCTYPE svg PUBLIC "-//W3C//DTD SVG 1.1//EN" "http://www.w3.org/Graphics/SVG/1.1/DTD/svg11.dtd">
<!-- Creator: CorelDRAW 2019 (64-Bit) -->
<svg xmlns="http://www.w3.org/2000/svg" xml:space="preserve" width="500px" height="500px" version="1.1" style="shape-rendering:geometricPrecision; text-rendering:geometricPrecision; image-rendering:optimizeQuality; fill-rule:evenodd; clip-rule:evenodd"
viewBox="0 0 500 500"
 xmlns:xlink="http://www.w3.org/1999/xlink"
 xmlns:xodm="http://www.corel.com/coreldraw/odm/2003"
 data-name="Layer 1">
 <defs>
  <style type="text/css">
   <![CDATA[
    .fil0 {fill:#D6A5B4;fill-rule:nonzero}
   ]]>
  </style>
 </defs>
 <g id="Capa_x0020_1">
  <metadata id="CorelCorpID_0Corel-Layer"/>
  <path class="fil0" d="M373.82 81.03c1.8,-4.31 3.7,-8.59 5.35,-12.96 2.19,-5.76 3.74,-11.81 6.35,-17.36 4.79,-10.21 12.26,-12.36 21.78,-6.53 2.4,1.47 4.13,1.27 6.67,0.55 13.43,-3.87 21.65,-0.58 26.43,12.27 0.7,1.89 2.33,3.45 3.61,5.1 0.61,0.78 1.71,1.28 2.07,2.14 2.84,6.85 6.9,13.54 7.96,20.67 1.52,10.31 1.99,21.06 0.81,31.39 -1.59,14.02 -9.42,19.75 -23.53,19.87 -3.11,0.03 -6.24,0 -9.37,0 -0.06,0.35 -0.13,0.7 -0.19,1.05 1.9,0.38 3.83,0.69 5.72,1.15 7.25,1.74 14.53,3.41 21.73,5.37 2.73,0.75 5.38,2 7.89,3.36 9.25,5.05 12.01,10.49 10.39,20.86 -0.7,4.5 -0.49,8.63 1,13.06 1.2,3.51 1.57,7.72 0.91,11.37 -2.37,13.32 -9.11,24.02 -20.82,31.22 -4.41,2.72 -9.09,3.08 -14.06,1.37 -4.19,-1.45 -8.52,-2.54 -12.82,-3.7 -0.88,-0.24 -1.87,-0.13 -3.75,-0.22 1.51,2.3 2.53,3.95 3.63,5.54 2.17,3.13 2.25,6.18 -1.3,8.04 -9.12,4.77 -18.14,9.94 -27.7,13.6 -9.26,3.54 -17.56,-0.51 -23.01,-8.7 -1.99,-2.98 -4.81,-5.57 -7.68,-7.79 -12.12,-9.32 -23.22,-19.64 -32.27,-32.02 -2.25,-3.07 -4.19,-3.69 -6.29,-0.62 -7.07,10.29 -12.28,21.45 -13.55,34.02 -0.48,4.76 1.68,7.53 6.47,8.02 10.84,1.12 21.74,1.61 32.59,2.6 4.69,0.42 9.47,0.95 13.96,2.26 6.64,1.95 10.73,6.55 10.97,13.8 0.38,11.3 0.83,22.62 0.84,33.94 0.06,36.78 -0.17,73.58 -0.06,110.36 0.03,7.4 -1.5,14.22 -4.73,20.74 -16.53,33.29 -42.08,55.62 -79.24,61.97 -38.77,6.62 -70.58,-6.39 -94.89,-37.44 -8.33,-10.65 -14.91,-22.37 -17.45,-35.64 -1.71,-8.95 -1.61,-18.28 -1.88,-27.46 -0.61,-21.53 -0.91,-43.07 -1.42,-64.6 -0.2,-8.62 -5.97,-15.77 -15.01,-16.76 -9.95,-1.11 -20.04,-1.03 -30.08,-1.1 -23.57,-0.15 -47.13,0.05 -70.69,-0.2 -5.11,-0.05 -10.35,-0.84 -15.27,-2.22 -9.37,-2.64 -12.82,-7.43 -13.48,-17.07 -1.34,-19.36 7.65,-32.05 26.49,-36.68 6.37,-1.57 12.97,-2.75 19.51,-3.03 21.24,-0.92 42.48,-1.59 63.74,-1.91 28.59,-0.43 57.18,-0.49 85.77,-0.61 5.6,-0.02 11.2,0.56 16.79,0.51 7.73,-0.08 9.09,-1.4 9.98,-9.11 2.1,-18.36 8.56,-35.3 16.49,-51.83 5.64,-11.73 9.05,-24.05 9.85,-37.18 1.03,-16.91 2.76,-33.77 4.08,-50.66 0.29,-3.71 0.17,-7.47 0.08,-11.2 -0.18,-6.92 1.81,-13.18 6.4,-18.26 6.33,-7.01 9.23,-14.99 10.41,-24.4 1.44,-11.44 7.46,-20.8 19.26,-24.06 4.68,-1.29 10.26,-0.55 15.17,0.49 5.25,1.11 9.75,0.98 14.37,-1.9 7.21,-4.5 10.74,-4 16.78,1.9 11.24,11 13.77,24.4 10.42,39.25 -1.3,5.74 -3.2,11.33 -4.42,17.07 -0.55,2.57 -0.09,5.35 -0.09,8.03 0.78,0.1 1.56,0.19 2.33,0.28zm-151.1 253.85c2.89,18.69 5.45,37.45 8.86,56.04 1.14,6.19 3.85,12.3 6.98,17.8 1.36,2.39 5.63,4.37 8.54,4.33 3.97,-0.06 5.19,-4.36 5.28,-7.8 0.2,-8.43 0.62,-16.97 -0.36,-25.3 -2.26,-19.16 -3.57,-38.28 -1.68,-57.54 0.35,-3.51 -0.05,-7.15 -0.64,-10.66 -0.43,-2.65 -2.32,-4.25 -5.35,-3.66 -11.96,2.31 -21.32,14.33 -21.63,26.79l0 0zm77.75 46.9c0,2.61 -0.38,6.96 0.09,11.21 0.59,5.38 1.41,10.84 3.07,15.95 0.66,2.03 3.75,4.34 5.88,4.49 1.74,0.12 4.06,-2.52 5.42,-4.43 1.19,-1.66 1.65,-3.98 1.97,-6.08 2.94,-19.71 5.44,-39.49 8.79,-59.12 2.07,-12.15 -2.62,-21.29 -10.85,-29.14 -2.37,-2.26 -6.07,-3.13 -9.15,-4.65 -1.08,3 -2.98,5.96 -3.12,9 -0.89,20.36 -1.41,40.72 -2.1,62.77zm74.84 -262.41c2.39,-0.28 3.75,-0.21 4.95,-0.64 2.93,-1.04 5.69,-2.51 8.72,0.11 0.42,0.37 2.58,-1.26 3.93,-1.97 -0.88,-1.28 -1.48,-3.18 -2.68,-3.72 -3.01,-1.35 -11.91,2.12 -14.92,6.22l0 0zm-7.14 -14.67c1.46,0 1.86,0.12 2,-0.02 3.35,-3.2 6.73,-6.37 9.93,-9.72 0.38,-0.39 0.1,-2.1 -0.42,-2.51 -1.03,-0.82 -2.41,-1.26 -3.72,-1.54 -0.23,-0.05 -0.87,1.41 -1.19,2.23 -0.58,1.49 -0.84,3.15 -1.64,4.5 -1.34,2.26 -3.01,4.32 -4.97,7.06l0.01 0zm14.96 31.3c1.98,2.71 3.64,5.3 5.66,7.57 0.76,0.85 2.36,0.95 3.57,1.39 0.4,-1.2 1.4,-2.61 1.08,-3.57 -1.17,-3.51 -6.45,-6.08 -10.31,-5.39zm-9.7 -11.51c-0.12,0.63 -0.24,1.25 -0.36,1.88 2.07,1.07 4.06,2.45 6.26,3.09 0.84,0.24 2.17,-1.2 3.27,-1.88 -0.74,-1.03 -1.35,-2.77 -2.25,-2.95 -2.24,-0.43 -4.62,-0.14 -6.92,-0.14l0 0z"/>
 </g>
</svg>
